# Blender v2.92.0 OBJ File: 'palo1.blend'
# www.blender.org
mtllib palo1.mtl
o Cube
v 0.000000 0.034995 0.033432
v 0.000000 -0.034995 0.033432
v -8.000000 0.100000 0.100000
v -8.000000 -0.100000 0.100000
v 0.000000 0.034995 -0.033432
v 0.000000 -0.034995 -0.033432
v -8.000000 0.100000 -0.100000
v -8.000000 -0.100000 -0.100000
vt 0.003984 0.000049
vt 0.044237 0.000049
vt 0.044237 0.999865
vt 0.003984 0.999865
vt 0.523141 0.898141
vt 0.476859 0.898141
vt 0.476859 0.851859
vt 0.523141 0.851859
vt 0.003755 0.999907
vt 0.045274 0.999907
vt 0.045274 0.000046
vt 0.003755 0.000046
vt 0.003673 0.000101
vt 0.045720 0.000101
vt 0.045720 0.999953
vt 0.003673 0.999953
vt 0.004594 0.000162
vt 0.044342 0.000162
vt 0.044342 0.999905
vt 0.004594 0.999905
vt 0.459891 0.334891
vt 0.540109 0.334891
vt 0.540109 0.415109
vt 0.459891 0.415109
vn 0.0081 1.0000 0.0000
vn -1.0000 0.0000 0.0000
vn 0.0083 0.0000 -1.0000
vn 0.0081 -1.0000 0.0000
vn 0.0083 0.0000 1.0000
vn 1.0000 0.0000 0.0000
usemtl Material
s off
f 1/1/1 5/2/1 7/3/1 3/4/1
f 4/5/2 3/6/2 7/7/2 8/8/2
f 8/9/3 7/10/3 5/11/3 6/12/3
f 6/13/4 2/14/4 4/15/4 8/16/4
f 2/17/5 1/18/5 3/19/5 4/20/5
f 6/21/6 5/22/6 1/23/6 2/24/6
